<svg version="1.1" xmlns="http://www.w3.org/2000/svg" xmlns:xlink="http://www.w3.org/1999/xlink" width="499" height="326" viewBox="0,0,499,326"><g transform="translate(-72,-22.5)"><g data-paper-data="{&quot;isPaintingLayer&quot;:true}" fill="#9966ff" fill-rule="nonzero" stroke="none" stroke-width="0" stroke-linecap="butt" stroke-linejoin="miter" stroke-miterlimit="10" stroke-dasharray="" stroke-dashoffset="0" style="mix-blend-mode: normal"><path d="M81.875,57.75v-23h466.5v23z"/><path d="M546,333v-296h8.5v296z"/><path d="M72,338v-13h499v13z"/><path d="M82,348.5v-326h12.5v326z"/><path d="M183.16667,118.83333v-23.33333h152v23.33333z"/><path d="M182.5,195.33333v-140.66667h4v140.66667z"/><path d="M182.66667,195.33333v-23.5h183v23.5z"/><path d="M362.33333,173.66667v-32h3.33333v32z"/><path d="M477.7,81.4v-7.4h20.4v7.4z"/><path d="M477.7,142.4v-7.4h20.4v7.4z"/><path d="M477.7,203.4v-7.4h20.4v7.4z"/><path d="M477.7,264.4v-7.4h20.4v7.4z"/><path d="M107.3,82.6v-6.8h14.6v6.8z"/><path d="M107.3,128.6v-6.8h14.6v6.8z"/><path d="M152.9,128.6v-6.8h14.6v6.8z"/><path d="M152.9,82.4v-6.8h14.6v6.8z"/><path d="M334.58333,167.16667v-10.5h7.5v10.5z"/><path d="M499.24658,84.52435v-6.45053h6.45053v6.45053z"/><path d="M469.47489,84.52436v-6.45054h6.45054v6.45054z"/><path d="M232.87367,206.34018v-7.44292h6.45053v7.44292z"/></g></g></svg>