<svg version="1.1" xmlns="http://www.w3.org/2000/svg" xmlns:xlink="http://www.w3.org/1999/xlink" width="13.7458" height="13.70041" viewBox="0,0,13.7458,13.70041"><g transform="translate(-313.14061,-173.16353)"><g data-paper-data="{&quot;isPaintingLayer&quot;:true}" fill="#940000" fill-rule="nonzero" stroke="#ffffff" stroke-width="1.15823" stroke-linecap="butt" stroke-linejoin="miter" stroke-miterlimit="10" stroke-dasharray="" stroke-dashoffset="0" style="mix-blend-mode: normal"><path d="M317.28602,184.49648c0.00346,0.98453 -0.79268,1.7855 -1.77756,1.78835c-0.98502,0.00344 -1.78575,-0.79247 -1.78873,-1.77795c-0.01176,-3.8882 -0.02703,-8.97564 -0.02703,-8.97564c-0.00308,-0.98466 0.79296,-1.78552 1.77782,-1.7886c0,0 5.89549,-0.0182 9.04807,-0.02747c0.98489,-0.00311 1.78537,0.79281 1.7887,1.77792c0.00311,0.98489 -0.7928,1.78562 -1.77782,1.7886c-3.88807,0.01163 -4.73596,0.01928 -4.73596,0.01928c0,0 0.87048,0.86595 2.07898,2.06806c-0.02839,-0.00741 -0.05693,-0.0142 -0.08561,-0.02037c-1.26492,-0.27223 -2.79397,0.65179 -2.82814,2.15279c-1.00457,-0.99928 -1.68649,-1.67766 -1.68649,-1.67766c0,0 0.00468,1.51938 0.01376,4.67269z"/></g></g></svg>