<svg version="1.1" xmlns="http://www.w3.org/2000/svg" xmlns:xlink="http://www.w3.org/1999/xlink" width="643.57359" height="454.57956" viewBox="0,0,643.57359,454.57956"><defs><radialGradient cx="162.23811" cy="153.64414" r="161.28679" gradientUnits="userSpaceOnUse" id="color-1"><stop offset="0" stop-color="#40803f"/><stop offset="1" stop-color="#063c0c"/></radialGradient><radialGradient cx="156.76717" cy="198.64414" r="161.28679" gradientUnits="userSpaceOnUse" id="color-2"><stop offset="0" stop-color="#8ff48e"/><stop offset="1" stop-color="#063a0c"/></radialGradient><radialGradient cx="164.22755" cy="234.64414" r="161.28679" gradientUnits="userSpaceOnUse" id="color-3"><stop offset="0" stop-color="#40803f"/><stop offset="1" stop-color="#063c0c"/></radialGradient><radialGradient cx="157.76188" cy="288.64414" r="161.28679" gradientUnits="userSpaceOnUse" id="color-4"><stop offset="0" stop-color="#8ff48e"/><stop offset="1" stop-color="#063a0c"/></radialGradient><radialGradient cx="165.22226" cy="333.64414" r="161.28679" gradientUnits="userSpaceOnUse" id="color-5"><stop offset="0" stop-color="#40803f"/><stop offset="1" stop-color="#063c0c"/></radialGradient><radialGradient cx="161.74075" cy="409.64414" r="161.28679" gradientUnits="userSpaceOnUse" id="color-6"><stop offset="0" stop-color="#8ff48e"/><stop offset="1" stop-color="#063a0c"/></radialGradient><radialGradient cx="483.73118" cy="153.64414" r="160.78679" gradientUnits="userSpaceOnUse" id="color-7"><stop offset="0" stop-color="#40803f"/><stop offset="1" stop-color="#063c0c"/></radialGradient><radialGradient cx="478.27719" cy="198.64414" r="160.78679" gradientUnits="userSpaceOnUse" id="color-8"><stop offset="0" stop-color="#8ff48e"/><stop offset="1" stop-color="#063a0c"/></radialGradient><radialGradient cx="485.71444" cy="234.64414" r="160.78679" gradientUnits="userSpaceOnUse" id="color-9"><stop offset="0" stop-color="#40803f"/><stop offset="1" stop-color="#063c0c"/></radialGradient><radialGradient cx="479.26882" cy="288.64414" r="160.78679" gradientUnits="userSpaceOnUse" id="color-10"><stop offset="0" stop-color="#8ff48e"/><stop offset="1" stop-color="#063a0c"/></radialGradient><radialGradient cx="486.70608" cy="333.64414" r="160.78679" gradientUnits="userSpaceOnUse" id="color-11"><stop offset="0" stop-color="#40803f"/><stop offset="1" stop-color="#063c0c"/></radialGradient><radialGradient cx="483.23536" cy="409.64414" r="160.78679" gradientUnits="userSpaceOnUse" id="color-12"><stop offset="0" stop-color="#8ff48e"/><stop offset="1" stop-color="#063a0c"/></radialGradient></defs><g transform="translate(1.28679,-143.67118)"><g data-paper-data="{&quot;isPaintingLayer&quot;:true}" fill-rule="nonzero" stroke="none" stroke-width="0" stroke-linecap="butt" stroke-linejoin="miter" stroke-miterlimit="10" stroke-dasharray="" stroke-dashoffset="0" style="mix-blend-mode: normal"><path d="M-1.28679,380.25076v-236.57958h322.57358v236.57958z" fill="url(#color-1)"/><path d="M-1.28679,403.25077v-236.57958h322.57358v236.57958z" fill="url(#color-2)"/><path d="M-1.28679,452.25077v-236.57958h322.57358v236.57958z" fill="url(#color-3)"/><path d="M-1.28679,503.25077v-236.57958h322.57358v236.57958z" fill="url(#color-4)"/><path d="M-1.28679,549.25077v-236.57958h322.57358v236.57958z" fill="url(#color-5)"/><path d="M-1.28679,598.25074v-236.57958h322.57358v236.57958z" fill="url(#color-6)"/><path d="M320.71322,380.25076v-236.57958h321.57358v236.57958z" fill="url(#color-7)"/><path d="M320.71321,403.25077v-236.57958h321.57358v236.57958z" fill="url(#color-8)"/><path d="M320.71321,452.25077v-236.57958h321.57358v236.57958z" fill="url(#color-9)"/><path d="M320.71321,503.25077v-236.57958h321.57358v236.57958z" fill="url(#color-10)"/><path d="M320.71321,549.25077v-236.57958h321.57358v236.57958z" fill="url(#color-11)"/><path d="M320.71321,598.25074v-236.57958h321.57358v236.57958z" fill="url(#color-12)"/></g></g></svg>