<svg version="1.1" xmlns="http://www.w3.org/2000/svg" xmlns:xlink="http://www.w3.org/1999/xlink" width="36.76048" height="30.32667" viewBox="0,0,36.76048,30.32667"><g transform="translate(-301.61976,-164.83667)"><g fill="#ededed" stroke="#ffffff" stroke-width="1.15823" stroke-miterlimit="10"><path d="M318.99171,189.1407c1.2455,1.24427 1.2455,3.26372 0,4.50896c-1.24492,1.24608 -3.26379,1.24608 -4.50987,0c-4.91638,-4.91644 -11.34909,-11.34941 -11.34909,-11.34941c-1.24517,-1.24492 -1.24517,-3.26405 0,-4.50954c0,0 7.45413,-7.45497 11.44066,-11.44092c1.24517,-1.2455 3.26379,-1.24517 4.50987,0c1.24543,1.24517 1.24543,3.26405 0,4.50954c-4.91644,4.91612 -5.98216,5.99462 -5.98216,5.99462c0,0 15.87394,0.00659 21.51106,0.00659c1.76127,0 3.18894,1.42741 3.18894,3.18868c0,1.76095 -1.42767,3.18894 -3.18894,3.18894c-6.72376,0 -21.52837,-0.00626 -21.52837,-0.00626c0,0 1.9213,1.92104 5.90789,5.9088z"/></g></g></svg>