<svg version="1.1" xmlns="http://www.w3.org/2000/svg" xmlns:xlink="http://www.w3.org/1999/xlink" width="647.33108" height="431.57956" viewBox="0,0,647.33108,431.57956"><defs><radialGradient cx="159.33333" cy="164.36336" r="161.87054" gradientUnits="userSpaceOnUse" id="color-1"><stop offset="0" stop-color="#40803f"/><stop offset="1" stop-color="#063c0c"/></radialGradient><radialGradient cx="156.83754" cy="221.36336" r="161.87054" gradientUnits="userSpaceOnUse" id="color-2"><stop offset="0" stop-color="#8ff48e"/><stop offset="1" stop-color="#063a0c"/></radialGradient><radialGradient cx="159.8325" cy="270.36336" r="161.87054" gradientUnits="userSpaceOnUse" id="color-3"><stop offset="0" stop-color="#40803f"/><stop offset="1" stop-color="#063c0c"/></radialGradient><radialGradient cx="159.33333" cy="328.36336" r="161.87054" gradientUnits="userSpaceOnUse" id="color-4"><stop offset="0" stop-color="#8ff48e"/><stop offset="1" stop-color="#063a0c"/></radialGradient><radialGradient cx="161.82913" cy="364.36336" r="161.87054" gradientUnits="userSpaceOnUse" id="color-5"><stop offset="0" stop-color="#40803f"/><stop offset="1" stop-color="#063c0c"/></radialGradient><radialGradient cx="482.42418" cy="164.36336" r="161.87054" gradientUnits="userSpaceOnUse" id="color-6"><stop offset="0" stop-color="#40803f"/><stop offset="1" stop-color="#063c0c"/></radialGradient><radialGradient cx="479.92838" cy="221.36336" r="161.87054" gradientUnits="userSpaceOnUse" id="color-7"><stop offset="0" stop-color="#8ff48e"/><stop offset="1" stop-color="#063a0c"/></radialGradient><radialGradient cx="482.92334" cy="270.36336" r="161.87055" gradientUnits="userSpaceOnUse" id="color-8"><stop offset="0" stop-color="#40803f"/><stop offset="1" stop-color="#063c0c"/></radialGradient><radialGradient cx="482.42418" cy="328.36336" r="161.87054" gradientUnits="userSpaceOnUse" id="color-9"><stop offset="0" stop-color="#8ff48e"/><stop offset="1" stop-color="#063a0c"/></radialGradient><radialGradient cx="484.91997" cy="364.36336" r="161.87054" gradientUnits="userSpaceOnUse" id="color-10"><stop offset="0" stop-color="#40803f"/><stop offset="1" stop-color="#063c0c"/></radialGradient></defs><g transform="translate(2.78679,-144.3904)"><g data-paper-data="{&quot;isPaintingLayer&quot;:true}" fill-rule="nonzero" stroke="none" stroke-width="0" stroke-linecap="butt" stroke-linejoin="miter" stroke-miterlimit="10" stroke-dasharray="" stroke-dashoffset="0" style="mix-blend-mode: normal"><path d="M-2.78679,380.96998v-236.57958h323.74108v236.57958z" fill="url(#color-1)"/><path d="M-2.28762,429.96998v-236.57958h323.74108v236.57958z" fill="url(#color-2)"/><path d="M-2.78679,480.96998v-236.57958h323.74108v236.57958z" fill="url(#color-3)"/><path d="M-2.78679,526.96998v-236.57958h323.74108v236.57958z" fill="url(#color-4)"/><path d="M-2.78679,575.96996v-236.57958h323.74108v236.57958z" fill="url(#color-5)"/><path d="M320.30406,380.96998v-236.57958h323.74108v236.57958z" fill="url(#color-6)"/><path d="M320.80322,429.96998v-236.57958h323.74107v236.57958z" fill="url(#color-7)"/><path d="M320.30406,480.96998v-236.57958h323.74108v236.57958z" fill="url(#color-8)"/><path d="M320.30406,526.96998v-236.57958h323.74108v236.57958z" fill="url(#color-9)"/><path d="M320.30405,575.96996v-236.57958h323.74108v236.57958z" fill="url(#color-10)"/></g></g></svg>