<svg version="1.1" xmlns="http://www.w3.org/2000/svg" xmlns:xlink="http://www.w3.org/1999/xlink" width="17.30871" height="5.61904" viewBox="0,0,17.30871,5.61904"><defs><linearGradient x1="318.2496" y1="178.38481" x2="318.2496" y2="181.57055" gradientUnits="userSpaceOnUse" id="color-1"><stop offset="0" stop-color="#848484"/><stop offset="1" stop-color="#000000"/></linearGradient><linearGradient x1="324.63054" y1="177.19048" x2="324.63054" y2="179.38096" gradientUnits="userSpaceOnUse" id="color-2"><stop offset="0" stop-color="#940000"/><stop offset="1" stop-color="#3b0000"/></linearGradient><linearGradient x1="324.63054" y1="180.61905" x2="324.63054" y2="182.80952" gradientUnits="userSpaceOnUse" id="color-3"><stop offset="0" stop-color="#3b0000"/><stop offset="1" stop-color="#940000"/></linearGradient><linearGradient x1="325.72579" y1="179.66667" x2="325.72579" y2="180.2381" gradientUnits="userSpaceOnUse" id="color-4"><stop offset="0" stop-color="#3b0000"/><stop offset="1" stop-color="#940000"/></linearGradient><linearGradient x1="312.42788" y1="178.79546" x2="312.42788" y2="181.20455" gradientUnits="userSpaceOnUse" id="color-5"><stop offset="0" stop-color="#940000"/><stop offset="1" stop-color="#220000"/></linearGradient></defs><g transform="translate(-311.34564,-177.19048)"><g data-paper-data="{&quot;isPaintingLayer&quot;:true}" fill-rule="nonzero" stroke="none" stroke-width="0" stroke-linecap="butt" stroke-linejoin="miter" stroke-miterlimit="10" stroke-dasharray="" stroke-dashoffset="0" style="mix-blend-mode: normal"><path d="M318.2496,178.38481c3.80353,0 6.8869,0.71315 6.8869,1.59287c0,0.87972 -3.08337,1.59287 -6.8869,1.59287c-3.80353,0 -6.8869,-0.71315 -6.8869,-1.59287c0,-0.87972 3.08337,-1.59287 6.8869,-1.59287z" data-paper-data="{&quot;index&quot;:null}" fill="url(#color-1)"/><path d="M323.5115,179.38096l-1.14286,-0.19048l4.28571,-2l0.2381,1.66667z" data-paper-data="{&quot;index&quot;:null}" fill="url(#color-2)"/><path d="M326.89244,181.14286l-0.23809,1.66666l-4.28571,-2l1.14286,-0.19047z" data-paper-data="{&quot;index&quot;:null}" fill="url(#color-3)"/><path d="M322.79722,180.2381v-0.57143h5.04762l0.80952,0.57143z" data-paper-data="{&quot;index&quot;:null}" fill="url(#color-4)"/><path d="M312.59087,180.95977c-0.33927,-0.12575 -0.97524,-0.49435 -0.97524,-0.49435c0,0 -0.24352,-0.20063 -0.26859,-0.4496c-0.01713,-0.1702 0.12572,-0.36297 0.2893,-0.5297c0.38412,-0.3915 1.97337,-0.69066 1.97337,-0.69066c0,0 -0.15217,0.79791 -0.15217,1.17351c0,0.42201 0.15217,1.23558 0.15217,1.23558c0,0 -0.69404,-0.12439 -1.01884,-0.24478z" data-paper-data="{&quot;index&quot;:null}" fill="url(#color-5)"/></g></g></svg>