<svg version="1.1" xmlns="http://www.w3.org/2000/svg" xmlns:xlink="http://www.w3.org/1999/xlink" width="17.30871" height="5.61904" viewBox="0,0,17.30871,5.61904"><defs><linearGradient x1="321.75893" y1="178.38481" x2="321.75893" y2="181.57055" gradientUnits="userSpaceOnUse" id="color-1"><stop offset="0" stop-color="#848484"/><stop offset="1" stop-color="#000000"/></linearGradient><linearGradient x1="315.37799" y1="177.19048" x2="315.37799" y2="179.38096" gradientUnits="userSpaceOnUse" id="color-2"><stop offset="0" stop-color="#940000"/><stop offset="1" stop-color="#3b0000"/></linearGradient><linearGradient x1="315.37799" y1="180.61905" x2="315.37799" y2="182.80952" gradientUnits="userSpaceOnUse" id="color-3"><stop offset="0" stop-color="#3b0000"/><stop offset="1" stop-color="#940000"/></linearGradient><linearGradient x1="314.28274" y1="179.66667" x2="314.28274" y2="180.2381" gradientUnits="userSpaceOnUse" id="color-4"><stop offset="0" stop-color="#3b0000"/><stop offset="1" stop-color="#940000"/></linearGradient><linearGradient x1="327.58065" y1="178.79546" x2="327.58065" y2="181.20455" gradientUnits="userSpaceOnUse" id="color-5"><stop offset="0" stop-color="#940000"/><stop offset="1" stop-color="#220000"/></linearGradient></defs><g transform="translate(-311.35417,-177.19048)"><g data-paper-data="{&quot;isPaintingLayer&quot;:true}" fill-rule="nonzero" stroke="none" stroke-width="0" stroke-linecap="butt" stroke-linejoin="miter" stroke-miterlimit="10" stroke-dasharray="" stroke-dashoffset="0" style="mix-blend-mode: normal"><path d="M328.64583,179.97768c0,0.87972 -3.08337,1.59287 -6.8869,1.59287c-3.80353,0 -6.8869,-0.71315 -6.8869,-1.59287c0,-0.87972 3.08337,-1.59287 6.8869,-1.59287c3.80353,0 6.8869,0.71315 6.8869,1.59287z" fill="url(#color-1)"/><path d="M313.11608,178.85715l0.2381,-1.66667l4.28571,2l-1.14286,0.19048z" data-paper-data="{&quot;index&quot;:null}" fill="url(#color-2)"/><path d="M316.49703,180.61905l1.14286,0.19047l-4.28571,2l-0.23809,-1.66666z" data-paper-data="{&quot;index&quot;:null}" fill="url(#color-3)"/><path d="M311.35417,180.2381l0.80952,-0.57143h5.04762v0.57143z" fill="url(#color-4)"/><path d="M326.39883,181.20455c0,0 0.15217,-0.81357 0.15217,-1.23558c0,-0.3756 -0.15217,-1.17351 -0.15217,-1.17351c0,0 1.58925,0.29916 1.97337,0.69066c0.16357,0.16673 0.30643,0.3595 0.2893,0.5297c-0.02506,0.24897 -0.26859,0.4496 -0.26859,0.4496c0,0 -0.63597,0.3686 -0.97524,0.49435c-0.32479,0.12039 -1.01884,0.24478 -1.01884,0.24478z" fill="url(#color-5)"/></g></g></svg>