<svg version="1.1" xmlns="http://www.w3.org/2000/svg" xmlns:xlink="http://www.w3.org/1999/xlink" width="645.9069" height="459.57956" viewBox="0,0,645.9069,459.57956"><defs><radialGradient cx="151.36904" cy="157.87687" r="161.37131" gradientUnits="userSpaceOnUse" id="color-1"><stop offset="0" stop-color="#8ff48e"/><stop offset="1" stop-color="#063a0c"/></radialGradient><radialGradient cx="158.83333" cy="191.87687" r="161.37131" gradientUnits="userSpaceOnUse" id="color-2"><stop offset="0" stop-color="#40803f"/><stop offset="1" stop-color="#063c0c"/></radialGradient><radialGradient cx="156.34523" cy="260.87687" r="161.37131" gradientUnits="userSpaceOnUse" id="color-3"><stop offset="0" stop-color="#8ff48e"/><stop offset="1" stop-color="#063a0c"/></radialGradient><radialGradient cx="159.33094" cy="297.87687" r="161.37131" gradientUnits="userSpaceOnUse" id="color-4"><stop offset="0" stop-color="#40803f"/><stop offset="1" stop-color="#063c0c"/></radialGradient><radialGradient cx="156.34523" cy="339.87687" r="161.37131" gradientUnits="userSpaceOnUse" id="color-5"><stop offset="0" stop-color="#8ff48e"/><stop offset="1" stop-color="#063a0c"/></radialGradient><radialGradient cx="161.32142" cy="391.87687" r="161.37131" gradientUnits="userSpaceOnUse" id="color-6"><stop offset="0" stop-color="#40803f"/><stop offset="1" stop-color="#063c0c"/></radialGradient><radialGradient cx="474.03571" cy="157.87687" r="161.37131" gradientUnits="userSpaceOnUse" id="color-7"><stop offset="0" stop-color="#8ff48e"/><stop offset="1" stop-color="#063a0c"/></radialGradient><radialGradient cx="481.49999" cy="191.87687" r="161.37131" gradientUnits="userSpaceOnUse" id="color-8"><stop offset="0" stop-color="#40803f"/><stop offset="1" stop-color="#063c0c"/></radialGradient><radialGradient cx="479.01189" cy="260.87687" r="161.37131" gradientUnits="userSpaceOnUse" id="color-9"><stop offset="0" stop-color="#8ff48e"/><stop offset="1" stop-color="#063a0c"/></radialGradient><radialGradient cx="481.99761" cy="297.87687" r="161.37131" gradientUnits="userSpaceOnUse" id="color-10"><stop offset="0" stop-color="#40803f"/><stop offset="1" stop-color="#063c0c"/></radialGradient><radialGradient cx="479.01189" cy="339.87687" r="161.37131" gradientUnits="userSpaceOnUse" id="color-11"><stop offset="0" stop-color="#8ff48e"/><stop offset="1" stop-color="#063a0c"/></radialGradient><radialGradient cx="483.98808" cy="391.87687" r="161.37131" gradientUnits="userSpaceOnUse" id="color-12"><stop offset="0" stop-color="#40803f"/><stop offset="1" stop-color="#063c0c"/></radialGradient></defs><g transform="translate(2.78679,-143.90391)"><g data-paper-data="{&quot;isPaintingLayer&quot;:true}" fill-rule="nonzero" stroke="none" stroke-width="0" stroke-linecap="butt" stroke-linejoin="miter" stroke-miterlimit="10" stroke-dasharray="" stroke-dashoffset="0" style="mix-blend-mode: normal"><path d="M-2.78679,380.48349v-236.57958h322.74261v236.57958z" fill="url(#color-1)"/><path d="M-2.78679,408.48349v-236.57958h322.74261v236.57958z" fill="url(#color-2)"/><path d="M-2.28917,457.48349v-236.57958h322.74261v236.57958z" fill="url(#color-3)"/><path d="M-2.78679,508.48349v-236.57958h322.74261v236.57958z" fill="url(#color-4)"/><path d="M-2.78679,554.48349v-236.57958h322.74261v236.57958z" fill="url(#color-5)"/><path d="M-2.78679,603.48347v-236.57958h322.74261v236.57958z" fill="url(#color-6)"/><path d="M319.87988,380.48349v-236.57958h322.74261v236.57958z" fill="url(#color-7)"/><path d="M319.87988,408.48349v-236.57958h322.74261v236.57958z" fill="url(#color-8)"/><path d="M320.3775,457.48349v-236.57958h322.74261v236.57958z" fill="url(#color-9)"/><path d="M319.87988,508.48349v-236.57958h322.74261v236.57958z" fill="url(#color-10)"/><path d="M319.87988,554.48349v-236.57958h322.74261v236.57958z" fill="url(#color-11)"/><path d="M319.87988,603.48347v-236.57958h322.74261v236.57958z" fill="url(#color-12)"/></g></g></svg>