<svg version="1.1" xmlns="http://www.w3.org/2000/svg" xmlns:xlink="http://www.w3.org/1999/xlink" width="640.57358" height="431.57956" viewBox="0,0,640.57358,431.57956"><defs><radialGradient cx="160.50152" cy="262.68019" r="160.28679" gradientUnits="userSpaceOnUse" id="color-1"><stop offset="0" stop-color="#8ff48e"/><stop offset="1" stop-color="#063a0c"/></radialGradient><radialGradient cx="160.50152" cy="311.68019" r="160.28679" gradientUnits="userSpaceOnUse" id="color-2"><stop offset="0" stop-color="#40803f"/><stop offset="1" stop-color="#063c0c"/></radialGradient><radialGradient cx="163.22002" cy="266.36336" r="160.28679" gradientUnits="userSpaceOnUse" id="color-3"><stop offset="0" stop-color="#8ff48e"/><stop offset="1" stop-color="#063a0c"/></radialGradient><radialGradient cx="164.70285" cy="308.36336" r="160.28679" gradientUnits="userSpaceOnUse" id="color-4"><stop offset="0" stop-color="#40803f"/><stop offset="1" stop-color="#063c0c"/></radialGradient><radialGradient cx="159.26582" cy="371.36336" r="160.28679" gradientUnits="userSpaceOnUse" id="color-5"><stop offset="0" stop-color="#8ff48e"/><stop offset="1" stop-color="#063a0c"/></radialGradient><radialGradient cx="480.50152" cy="262.68019" r="160.28679" gradientUnits="userSpaceOnUse" id="color-6"><stop offset="0" stop-color="#8ff48e"/><stop offset="1" stop-color="#063a0c"/></radialGradient><radialGradient cx="480.50152" cy="311.68019" r="160.28679" gradientUnits="userSpaceOnUse" id="color-7"><stop offset="0" stop-color="#40803f"/><stop offset="1" stop-color="#063c0c"/></radialGradient><radialGradient cx="483.22002" cy="266.36336" r="160.28679" gradientUnits="userSpaceOnUse" id="color-8"><stop offset="0" stop-color="#8ff48e"/><stop offset="1" stop-color="#063a0c"/></radialGradient><radialGradient cx="484.70286" cy="308.36336" r="160.28679" gradientUnits="userSpaceOnUse" id="color-9"><stop offset="0" stop-color="#40803f"/><stop offset="1" stop-color="#063c0c"/></radialGradient><radialGradient cx="479.26582" cy="371.36336" r="160.28679" gradientUnits="userSpaceOnUse" id="color-10"><stop offset="0" stop-color="#8ff48e"/><stop offset="1" stop-color="#063a0c"/></radialGradient></defs><g transform="translate(-0.21472,-144.3904)"><g data-paper-data="{&quot;isPaintingLayer&quot;:true}" fill-rule="nonzero" stroke="none" stroke-width="0" stroke-linecap="butt" stroke-linejoin="miter" stroke-miterlimit="10" stroke-dasharray="" stroke-dashoffset="0" style="mix-blend-mode: normal"><path d="M0.21472,380.96998v-236.57958h320.57358v236.57958z" fill="url(#color-1)"/><path d="M0.21472,429.96998v-236.57958h320.57358v236.57958z" fill="url(#color-2)"/><path d="M0.21472,480.96998v-236.57958h320.57358v236.57958z" fill="url(#color-3)"/><path d="M0.21472,526.96998v-236.57958h320.57358v236.57958z" fill="url(#color-4)"/><path d="M0.21472,575.96996v-236.57958h320.57358v236.57958z" fill="url(#color-5)"/><path d="M320.21473,380.96998v-236.57958h320.57357v236.57958z" fill="url(#color-6)"/><path d="M320.21472,429.96998v-236.57958h320.57358v236.57958z" fill="url(#color-7)"/><path d="M320.21473,480.96998v-236.57958h320.57357v236.57958z" fill="url(#color-8)"/><path d="M320.21473,526.96998v-236.57958h320.57357v236.57958z" fill="url(#color-9)"/><path d="M320.21473,575.96996v-236.57958h320.57357v236.57958z" fill="url(#color-10)"/></g></g></svg>