<svg version="1.1" xmlns="http://www.w3.org/2000/svg" xmlns:xlink="http://www.w3.org/1999/xlink" width="1028.61034" height="648.57357" viewBox="0,0,1028.61034,648.57357"><defs><radialGradient cx="118.49999" cy="180.00003" r="324.28679" gradientUnits="userSpaceOnUse" id="color-1"><stop offset="0" stop-color="#8ff48e"/><stop offset="1" stop-color="#063a0c"/></radialGradient><radialGradient cx="69.49999" cy="180.00003" r="324.28679" gradientUnits="userSpaceOnUse" id="color-2"><stop offset="0" stop-color="#40803f"/><stop offset="1" stop-color="#063c0c"/></radialGradient><radialGradient cx="114.81682" cy="185.50001" r="324.28679" gradientUnits="userSpaceOnUse" id="color-3"><stop offset="0" stop-color="#8ff48e"/><stop offset="1" stop-color="#063a0c"/></radialGradient><radialGradient cx="72.81682" cy="188.50003" r="324.28679" gradientUnits="userSpaceOnUse" id="color-4"><stop offset="0" stop-color="#40803f"/><stop offset="1" stop-color="#063c0c"/></radialGradient><radialGradient cx="9.81682" cy="177.50001" r="324.28679" gradientUnits="userSpaceOnUse" id="color-5"><stop offset="0" stop-color="#8ff48e"/><stop offset="1" stop-color="#063a0c"/></radialGradient><radialGradient cx="520.53079" cy="180" r="324.28679" gradientUnits="userSpaceOnUse" id="color-6"><stop offset="0" stop-color="#8ff48e"/><stop offset="1" stop-color="#063a0c"/></radialGradient><radialGradient cx="569.53079" cy="180" r="324.28679" gradientUnits="userSpaceOnUse" id="color-7"><stop offset="0" stop-color="#40803f"/><stop offset="1" stop-color="#063c0c"/></radialGradient><radialGradient cx="524.21396" cy="174.50001" r="324.28679" gradientUnits="userSpaceOnUse" id="color-8"><stop offset="0" stop-color="#8ff48e"/><stop offset="1" stop-color="#063a0c"/></radialGradient><radialGradient cx="566.21396" cy="171.5" r="324.28679" gradientUnits="userSpaceOnUse" id="color-9"><stop offset="0" stop-color="#40803f"/><stop offset="1" stop-color="#063c0c"/></radialGradient><radialGradient cx="629.21396" cy="182.50001" r="324.28679" gradientUnits="userSpaceOnUse" id="color-10"><stop offset="0" stop-color="#8ff48e"/><stop offset="1" stop-color="#063a0c"/></radialGradient></defs><g transform="translate(194.78978,144.28677)"><g data-paper-data="{&quot;isPaintingLayer&quot;:true}" fill-rule="nonzero" stroke="none" stroke-width="0" stroke-linecap="butt" stroke-linejoin="miter" stroke-miterlimit="10" stroke-dasharray="" stroke-dashoffset="0" style="mix-blend-mode: normal"><path d="M0.2102,-144.28677h236.57958v648.57357h-236.57958z" fill="url(#color-1)"/><path d="M-48.7898,-144.28677h236.57958v648.57357h-236.57958z" fill="url(#color-2)"/><path d="M-99.7898,-144.28677h236.57958v648.57357h-236.57958z" fill="url(#color-3)"/><path d="M-145.7898,-144.28677h236.57958v648.57357h-236.57958z" fill="url(#color-4)"/><path d="M-194.78978,-144.28677h236.57958v648.57357h-236.57958z" fill="url(#color-5)"/><path d="M638.82058,504.2868h-236.57958v-648.57357h236.57958z" fill="url(#color-6)"/><path d="M687.82058,504.2868h-236.57958v-648.57357h236.57958z" fill="url(#color-7)"/><path d="M738.82058,504.2868h-236.57958v-648.57357h236.57958z" fill="url(#color-8)"/><path d="M784.82058,504.2868h-236.57958v-648.57357h236.57958z" fill="url(#color-9)"/><path d="M833.82056,504.2868h-236.57958v-648.57357h236.57958z" fill="url(#color-10)"/></g></g></svg>