<svg version="1.1" xmlns="http://www.w3.org/2000/svg" xmlns:xlink="http://www.w3.org/1999/xlink" width="100" height="100" viewBox="0,0,100,100"><g transform="translate(-270,-130)"><g data-paper-data="{&quot;isPaintingLayer&quot;:true}" fill-rule="nonzero" stroke="none" stroke-width="0" stroke-linecap="butt" stroke-linejoin="miter" stroke-miterlimit="10" stroke-dasharray="" stroke-dashoffset="0" style="mix-blend-mode: normal"><path d="M270,180c0,-27.61424 22.38576,-50 50,-50c27.61424,0 50,22.38576 50,50c0,27.61424 -22.38576,50 -50,50c-27.61424,0 -50,-22.38576 -50,-50z" fill-opacity="0.41176" fill="#858585"/><path d="M278.06452,180c0,-23.16034 18.77516,-41.93548 41.93548,-41.93548c23.16032,0 41.93548,18.77515 41.93548,41.93548c0,23.16034 -18.77516,41.93548 -41.93548,41.93548c-23.16032,0 -41.93548,-18.77515 -41.93548,-41.93548z" fill-opacity="0.49804" fill="#ffffff"/><path d="M300.06452,180c0,-11.01007 8.92542,-19.93548 19.93548,-19.93548c11.01006,0 19.93548,8.92542 19.93548,19.93548c0,11.01007 -8.92542,19.93548 -19.93548,19.93548c-11.01006,0 -19.93548,-8.92542 -19.93548,-19.93548z" fill-opacity="0.79608" fill="#ffffff"/></g></g></svg>