<svg version="1.1" xmlns="http://www.w3.org/2000/svg" xmlns:xlink="http://www.w3.org/1999/xlink" width="44.37694" height="44.37694" viewBox="0,0,44.37694,44.37694"><defs><radialGradient cx="319.51746" cy="178.29951" r="22.18847" gradientUnits="userSpaceOnUse" id="color-1"><stop offset="0" stop-color="#e8e100"/><stop offset="1" stop-color="#e8e100" stop-opacity="0"/></radialGradient><radialGradient cx="319.77163" cy="179.19522" r="10.50097" gradientUnits="userSpaceOnUse" id="color-2"><stop offset="0" stop-color="#fff600"/><stop offset="1" stop-color="#aa5b00"/></radialGradient></defs><g transform="translate(-297.81153,-157.81153)"><g data-paper-data="{&quot;isPaintingLayer&quot;:true}" fill-rule="nonzero" stroke="#000000" stroke-linecap="butt" stroke-linejoin="miter" stroke-miterlimit="10" stroke-dasharray="" stroke-dashoffset="0" style="mix-blend-mode: normal"><path d="M297.81153,180c0,-12.25436 9.93411,-22.18847 22.18847,-22.18847c12.25436,0 22.18847,9.93411 22.18847,22.18847c0,12.25436 -9.93411,22.18847 -22.18847,22.18847c-12.25436,0 -22.18847,-9.93411 -22.18847,-22.18847z" fill="url(#color-1)" stroke-width="0"/><path d="M309.49903,180c0,-5.79953 4.70144,-10.50097 10.50097,-10.50097c5.79953,0 10.50097,4.70144 10.50097,10.50097c0,5.79953 -4.70144,10.50097 -10.50097,10.50097c-5.79953,0 -10.50097,-4.70144 -10.50097,-10.50097z" fill="url(#color-2)" stroke-width="0.5"/></g></g></svg>