<svg version="1.1" xmlns="http://www.w3.org/2000/svg" xmlns:xlink="http://www.w3.org/1999/xlink" width="37.07258" height="37.0726" viewBox="0,0,37.07258,37.0726"><defs><radialGradient cx="320" cy="180" r="13.28571" gradientUnits="userSpaceOnUse" id="color-1"><stop offset="0" stop-color="#00ff0a"/><stop offset="1" stop-color="#002cff"/></radialGradient><radialGradient cx="319.53646" cy="179.53646" r="5.5625" gradientUnits="userSpaceOnUse" id="color-2"><stop offset="0" stop-color="#00ceff"/><stop offset="1" stop-color="#0b00ab"/></radialGradient></defs><g transform="translate(-301.4637,-161.4637)"><g data-paper-data="{&quot;isPaintingLayer&quot;:true}" fill-rule="nonzero" stroke="#000000" stroke-linecap="butt" stroke-linejoin="miter" stroke-miterlimit="10" stroke-dasharray="" stroke-dashoffset="0" style="mix-blend-mode: normal"><path d="M319.74746,198.5363c0,0 -4.28313,-8.92983 -7.42462,-12.07132c-2.93968,-2.93968 -10.85914,-6.21244 -10.85914,-6.21244c0,0 9.5544,-3.89755 12.67741,-7.02056c3.13984,-3.13984 6.11142,-11.76828 6.11142,-11.76828c0,0 3.72239,8.36909 6.71751,11.36422c3.09611,3.09611 11.56624,6.91954 11.56624,6.91954c0,0 -8.61517,3.16035 -11.66726,6.21244c-3.20352,3.20352 -7.12158,12.5764 -7.12158,12.5764z" fill="url(#color-1)" stroke-width="0"/><path d="M314.4375,180c0,-3.07208 2.49041,-5.5625 5.5625,-5.5625c3.07208,0 5.5625,2.49041 5.5625,5.5625c0,3.07208 -2.49041,5.5625 -5.5625,5.5625c-3.07208,0 -5.5625,-2.49041 -5.5625,-5.5625z" fill="url(#color-2)" stroke-width="0.5"/></g></g></svg>