<svg version="1.1" xmlns="http://www.w3.org/2000/svg" xmlns:xlink="http://www.w3.org/1999/xlink" width="41.125" height="41.125" viewBox="0,0,41.125,41.125"><defs><radialGradient cx="320" cy="180" r="20.5625" gradientUnits="userSpaceOnUse" id="color-1"><stop offset="0" stop-color="#00ceff"/><stop offset="1" stop-color="#0b00ab" stop-opacity="0.2902"/></radialGradient><radialGradient cx="320" cy="180" r="13.28571" gradientUnits="userSpaceOnUse" id="color-2"><stop offset="0" stop-color="#00ff0a"/><stop offset="1" stop-color="#002cff"/></radialGradient><radialGradient cx="319.53646" cy="179.53646" r="5.5625" gradientUnits="userSpaceOnUse" id="color-3"><stop offset="0" stop-color="#00ceff"/><stop offset="1" stop-color="#0b00ab"/></radialGradient></defs><g transform="translate(-299.4375,-159.4375)"><g data-paper-data="{&quot;isPaintingLayer&quot;:true}" fill-rule="nonzero" stroke-linecap="butt" stroke-linejoin="miter" stroke-miterlimit="10" stroke-dasharray="" stroke-dashoffset="0" style="mix-blend-mode: normal"><path d="M299.4375,180c0,-11.35636 9.20614,-20.5625 20.5625,-20.5625c11.35636,0 20.5625,9.20614 20.5625,20.5625c0,11.35636 -9.20614,20.5625 -20.5625,20.5625c-11.35636,0 -20.5625,-9.20614 -20.5625,-20.5625z" fill="url(#color-1)" stroke="none" stroke-width="0"/><path d="M319.74746,198.5363c0,0 -4.28313,-8.92983 -7.42462,-12.07132c-2.93968,-2.93968 -10.85914,-6.21244 -10.85914,-6.21244c0,0 9.5544,-3.89755 12.67741,-7.02056c3.13984,-3.13984 6.11142,-11.76828 6.11142,-11.76828c0,0 3.72239,8.36909 6.71751,11.36422c3.09611,3.09611 11.56624,6.91954 11.56624,6.91954c0,0 -8.61517,3.16035 -11.66726,6.21244c-3.20352,3.20352 -7.12158,12.5764 -7.12158,12.5764z" fill="url(#color-2)" stroke="#000000" stroke-width="0"/><path d="M314.4375,180c0,-3.07208 2.49041,-5.5625 5.5625,-5.5625c3.07208,0 5.5625,2.49041 5.5625,5.5625c0,3.07208 -2.49041,5.5625 -5.5625,5.5625c-3.07208,0 -5.5625,-2.49041 -5.5625,-5.5625z" fill="url(#color-3)" stroke="#000000" stroke-width="0.5"/></g></g></svg>