<svg version="1.1" xmlns="http://www.w3.org/2000/svg" xmlns:xlink="http://www.w3.org/1999/xlink" width="610.02505" height="364.24679" viewBox="0,0,610.02505,364.24679"><defs><radialGradient cx="84.18424" cy="11.19113" r="73.0313" gradientUnits="userSpaceOnUse" id="color-1"><stop offset="0" stop-color="#119000"/><stop offset="1" stop-color="#0d1a00"/></radialGradient><radialGradient cx="547.98048" cy="9.82433" r="73.0313" gradientUnits="userSpaceOnUse" id="color-2"><stop offset="0" stop-color="#870000"/><stop offset="1" stop-color="#470000"/></radialGradient><radialGradient cx="552.48498" cy="347.66217" r="73.0313" gradientUnits="userSpaceOnUse" id="color-3"><stop offset="0" stop-color="#870000"/><stop offset="1" stop-color="#470000"/></radialGradient><radialGradient cx="92.50107" cy="352.19446" r="73.0313" gradientUnits="userSpaceOnUse" id="color-4"><stop offset="0" stop-color="#119000"/><stop offset="1" stop-color="#0d1a00"/></radialGradient><radialGradient cx="321.21608" cy="324.89564" r="156.10285" gradientUnits="userSpaceOnUse" id="color-5"><stop offset="0" stop-color="#929292"/><stop offset="1" stop-color="#000000"/></radialGradient><radialGradient cx="476.50107" cy="324.19446" r="8.76126" gradientUnits="userSpaceOnUse" id="color-6"><stop offset="0" stop-color="#119000"/><stop offset="1" stop-color="#0d1a00"/></radialGradient><linearGradient x1="477.61023" y1="316.63364" x2="477.61023" y2="334.15616" gradientUnits="userSpaceOnUse" id="color-7"><stop offset="0" stop-color="#000000"/><stop offset="1" stop-color="#28a532"/></linearGradient><radialGradient cx="161.50107" cy="324.19446" r="8.76126" gradientUnits="userSpaceOnUse" id="color-8"><stop offset="0" stop-color="#119000"/><stop offset="1" stop-color="#0d1a00"/></radialGradient><linearGradient x1="162.61023" y1="316.63364" x2="162.61023" y2="334.15616" gradientUnits="userSpaceOnUse" id="color-9"><stop offset="0" stop-color="#000000"/><stop offset="1" stop-color="#28a532"/></linearGradient><radialGradient cx="319.25662" cy="35.35511" r="156.10285" gradientUnits="userSpaceOnUse" id="color-10"><stop offset="0" stop-color="#929292"/><stop offset="1" stop-color="#000000"/></radialGradient><radialGradient cx="328.76126" cy="35.34986" r="156.10286" gradientUnits="userSpaceOnUse" id="color-11"><stop offset="0" stop-color="#870000"/><stop offset="1" stop-color="#470000"/></radialGradient><radialGradient cx="473.50107" cy="34.19446" r="8.76126" gradientUnits="userSpaceOnUse" id="color-12"><stop offset="0" stop-color="#870000"/><stop offset="1" stop-color="#470000"/></radialGradient><linearGradient x1="477.61023" y1="26.84385" x2="477.61023" y2="44.36637" gradientUnits="userSpaceOnUse" id="color-13"><stop offset="0" stop-color="#000000"/><stop offset="1" stop-color="#28a532"/></linearGradient><radialGradient cx="163.50107" cy="36.19446" r="8.76126" gradientUnits="userSpaceOnUse" id="color-14"><stop offset="0" stop-color="#870000"/><stop offset="1" stop-color="#470000"/></radialGradient><linearGradient x1="162.61023" y1="26.84385" x2="162.61023" y2="44.36637" gradientUnits="userSpaceOnUse" id="color-15"><stop offset="0" stop-color="#000000"/><stop offset="1" stop-color="#28a532"/></linearGradient><radialGradient cx="176.21609" cy="178.89564" r="156.10285" gradientUnits="userSpaceOnUse" id="color-16"><stop offset="0" stop-color="#929292"/><stop offset="1" stop-color="#000000"/></radialGradient><radialGradient cx="175.50107" cy="336.19446" r="8.76126" gradientUnits="userSpaceOnUse" id="color-17"><stop offset="0" stop-color="#119000"/><stop offset="1" stop-color="#0d1a00"/></radialGradient><linearGradient x1="184.72735" y1="337.24925" x2="167.20483" y2="337.24925" gradientUnits="userSpaceOnUse" id="color-18"><stop offset="0" stop-color="#000000"/><stop offset="1" stop-color="#28a532"/></linearGradient><radialGradient cx="175.50107" cy="23.19446" r="8.76126" gradientUnits="userSpaceOnUse" id="color-19"><stop offset="0" stop-color="#119000"/><stop offset="1" stop-color="#0d1a00"/></radialGradient><linearGradient x1="184.72735" y1="22.24925" x2="167.20483" y2="22.24925" gradientUnits="userSpaceOnUse" id="color-20"><stop offset="0" stop-color="#000000"/><stop offset="1" stop-color="#28a532"/></linearGradient><radialGradient cx="464.50437" cy="178.89564" r="156.10285" gradientUnits="userSpaceOnUse" id="color-21"><stop offset="0" stop-color="#929292"/><stop offset="1" stop-color="#000000"/></radialGradient><radialGradient cx="460.89339" cy="202.01653" r="156.10286" gradientUnits="userSpaceOnUse" id="color-22"><stop offset="0" stop-color="#870000"/><stop offset="1" stop-color="#470000"/></radialGradient><radialGradient cx="464.75107" cy="338.19446" r="8.76126" gradientUnits="userSpaceOnUse" id="color-23"><stop offset="0" stop-color="#870000"/><stop offset="1" stop-color="#470000"/></radialGradient><linearGradient x1="473.01563" y1="337.24926" x2="455.49311" y2="337.24926" gradientUnits="userSpaceOnUse" id="color-24"><stop offset="0" stop-color="#000000"/><stop offset="1" stop-color="#28a532"/></linearGradient><radialGradient cx="464.25107" cy="22.19446" r="8.76126" gradientUnits="userSpaceOnUse" id="color-25"><stop offset="0" stop-color="#870000"/><stop offset="1" stop-color="#470000"/></radialGradient><linearGradient x1="473.01563" y1="22.24926" x2="455.49311" y2="22.24926" gradientUnits="userSpaceOnUse" id="color-26"><stop offset="0" stop-color="#000000"/><stop offset="1" stop-color="#28a532"/></linearGradient></defs><g transform="translate(-15.1752,2.51215)"><g stroke-miterlimit="10"><path d="M15.9252,21.48464v-21.96926h146.06259v21.96926z" fill="url(#color-1)" stroke="#000000" stroke-width="1.5"/><text transform="translate(141.43268,14.6523) scale(0.33988,0.33988)" font-size="40" xml:space="preserve" fill="#ffffff" stroke="#000000" stroke-width="1" font-family="Pixel" font-weight="normal" text-anchor="start"><tspan x="0" dy="0">P1</tspan></text><path d="M478.38766,21.48464v-21.96926h146.06259v21.96926z" fill="url(#color-2)" stroke="#000000" stroke-width="1.5"/><text transform="translate(598.79634,14.6523) scale(0.33989,0.33989)" font-size="40" xml:space="preserve" fill="#ffffff" stroke="#000000" stroke-width="1" font-family="Pixel" font-weight="normal" text-anchor="start"><tspan x="0" dy="0">P2</tspan></text><path d="M478.38766,360.82248v-21.96926h146.06259v21.96926z" fill="url(#color-3)" stroke="#000000" stroke-width="1.5"/><path d="M15.9252,360.98464v-21.96926h146.06259v21.96926z" fill="url(#color-4)" stroke="#000000" stroke-width="1.5"/><path d="M165.11323,326.8994v-4.00751h312.20571v4.00751z" fill="url(#color-5)" stroke="#73ff00" stroke-width="2"/><path d="M477.61023,334.15616c-4.83871,0 -8.76126,-3.92255 -8.76126,-8.76126c0,-4.83871 3.92255,-8.76126 8.76126,-8.76126c4.83871,0 8.76126,3.92255 8.76126,8.76126c0,4.83871 -3.92255,8.76126 -8.76126,8.76126z" fill="url(#color-6)" stroke="url(#color-7)" stroke-width="0"/><path d="M162.61023,334.15616c-4.83871,0 -8.76126,-3.92255 -8.76126,-8.76126c0,-4.83871 3.92255,-8.76126 8.76126,-8.76126c4.83871,0 8.76126,3.92255 8.76126,8.76126c0,4.83871 -3.92255,8.76126 -8.76126,8.76126z" fill="url(#color-8)" stroke="url(#color-9)" stroke-width="0"/><path d="M163.15377,37.35887v-4.00751h312.20571v4.00751z" fill="url(#color-10)" stroke="url(#color-11)" stroke-width="2"/><path d="M477.61023,44.36637c-4.83871,0 -8.76126,-3.92255 -8.76126,-8.76126c0,-4.83871 3.92255,-8.76126 8.76126,-8.76126c4.83871,0 8.76126,3.92255 8.76126,8.76126c0,4.83871 -3.92255,8.76126 -8.76126,8.76126z" fill="url(#color-12)" stroke="url(#color-13)" stroke-width="0"/><path d="M162.61023,44.36637c-4.83871,0 -8.76126,-3.92255 -8.76126,-8.76126c0,-4.83871 3.92255,-8.76126 8.76126,-8.76126c4.83871,0 8.76126,3.92255 8.76126,8.76126c0,4.83871 -3.92255,8.76126 -8.76126,8.76126z" fill="url(#color-14)" stroke="url(#color-15)" stroke-width="0"/><path d="M174.21233,22.79279h4.00751v312.20571h-4.00751z" fill="url(#color-16)" stroke="#73ff00" stroke-width="2"/><path d="M167.20483,337.24925c0,-4.83871 3.92255,-8.76126 8.76126,-8.76126c4.83871,0 8.76126,3.92255 8.76126,8.76126c0,4.83871 -3.92255,8.76126 -8.76126,8.76126c-4.83871,0 -8.76126,-3.92255 -8.76126,-8.76126z" fill="url(#color-17)" stroke="url(#color-18)" stroke-width="0"/><path d="M167.20483,22.24925c0,-4.83871 3.92255,-8.76126 8.76126,-8.76126c4.83871,0 8.76126,3.92255 8.76126,8.76126c0,4.83871 -3.92255,8.76126 -8.76126,8.76126c-4.83871,0 -8.76126,-3.92255 -8.76126,-8.76126z" fill="url(#color-19)" stroke="url(#color-20)" stroke-width="0"/><path d="M462.50061,22.7928h4.00751v312.20571h-4.00751z" fill="url(#color-21)" stroke="url(#color-22)" stroke-width="2"/><path d="M455.49311,337.24926c0,-4.83871 3.92255,-8.76126 8.76126,-8.76126c4.83871,0 8.76126,3.92255 8.76126,8.76126c0,4.83871 -3.92255,8.76126 -8.76126,8.76126c-4.83871,0 -8.76126,-3.92255 -8.76126,-8.76126z" fill="url(#color-23)" stroke="url(#color-24)" stroke-width="0"/><path d="M455.49311,22.24926c0,-4.83871 3.92255,-8.76126 8.76126,-8.76126c4.83871,0 8.76126,3.92255 8.76126,8.76126c0,4.83871 -3.92255,8.76126 -8.76126,8.76126c-4.83871,0 -8.76126,-3.92255 -8.76126,-8.76126z" fill="url(#color-25)" stroke="url(#color-26)" stroke-width="0"/><text transform="translate(141.43268,355.6523) scale(0.33988,0.33988)" font-size="40" xml:space="preserve" fill="#ffffff" stroke="#000000" stroke-width="1" font-family="Pixel" font-weight="normal" text-anchor="start"><tspan x="0" dy="0">P1</tspan></text><text transform="translate(598.79634,354.6523) scale(0.33989,0.33989)" font-size="40" xml:space="preserve" fill="#ffffff" stroke="#000000" stroke-width="1" font-family="Pixel" font-weight="normal" text-anchor="start"><tspan x="0" dy="0">P2</tspan></text></g></g></svg>