<svg version="1.1" xmlns="http://www.w3.org/2000/svg" xmlns:xlink="http://www.w3.org/1999/xlink" width="37.05774" height="37.07572" viewBox="0,0,37.05774,37.07572"><defs><radialGradient cx="320" cy="180" r="13.28571" gradientUnits="userSpaceOnUse" id="color-1"><stop offset="0" stop-color="#00ffff"/><stop offset="1" stop-color="#8200ff"/></radialGradient><radialGradient cx="319.51042" cy="179.51042" r="5.875" gradientUnits="userSpaceOnUse" id="color-2"><stop offset="0" stop-color="#fc00ff"/><stop offset="1" stop-color="#1c00ab"/></radialGradient></defs><g transform="translate(-301.47113,-161.46214)"><g data-paper-data="{&quot;isPaintingLayer&quot;:true}" fill-rule="nonzero" stroke="#000000" stroke-linecap="butt" stroke-linejoin="miter" stroke-miterlimit="10" stroke-dasharray="" stroke-dashoffset="0" style="mix-blend-mode: normal"><path d="M301.47113,179.41772c0,0 9.00461,-4.12358 12.2015,-7.20869c2.99152,-2.88692 6.40465,-10.74689 6.40465,-10.74689c0,0 3.72695,9.62223 6.79391,12.80031c3.08349,3.19521 11.65769,6.31983 11.65769,6.31983c0,0 -8.43399,3.57291 -11.48192,6.51427c-3.1507,3.04054 -7.12423,11.44131 -7.12423,11.44131c0,0 -3.00658,-8.67003 -6.00389,-11.77594c-3.14602,-3.26001 -12.44771,-7.34419 -12.44771,-7.34419z" fill="url(#color-1)" stroke-width="0"/><path d="M314.125,180c0,-3.24467 2.63032,-5.875 5.875,-5.875c3.24467,0 5.875,2.63032 5.875,5.875c0,3.24467 -2.63032,5.875 -5.875,5.875c-3.24467,0 -5.875,-2.63032 -5.875,-5.875z" fill="url(#color-2)" stroke-width="0.5"/></g></g></svg>