<svg version="1.1" xmlns="http://www.w3.org/2000/svg" xmlns:xlink="http://www.w3.org/1999/xlink" width="26.57143" height="25.85714" viewBox="0,0,26.57143,25.85714"><defs><radialGradient cx="320" cy="180" r="13.28571" gradientUnits="userSpaceOnUse" id="color-1"><stop offset="0" stop-color="#00ff0a"/><stop offset="1" stop-color="#002cff"/></radialGradient><radialGradient cx="319.41667" cy="179.41667" r="7" gradientUnits="userSpaceOnUse" id="color-2"><stop offset="0" stop-color="#00ceff"/><stop offset="1" stop-color="#0b00ab"/></radialGradient></defs><g transform="translate(-306.71429,-167.07143)"><g data-paper-data="{&quot;isPaintingLayer&quot;:true}" fill-rule="nonzero" stroke="#000000" stroke-linecap="butt" stroke-linejoin="miter" stroke-miterlimit="10" stroke-dasharray="" stroke-dashoffset="0" style="mix-blend-mode: normal"><path d="M306.71429,192.92857c0,0 3.28571,-9.34297 3.28571,-13.78571c0,-4.15734 -3.28571,-12.07143 -3.28571,-12.07143c0,0 9.51197,4 13.92857,4c4.44041,0 12.64286,-4 12.64286,-4c0,0 -3.28571,8.54997 -3.28571,12.78571c0,4.37856 3.28571,13.07143 3.28571,13.07143c0,0 -8.32655,-3.85714 -12.64286,-3.85714c-4.53046,0 -13.92857,3.85714 -13.92857,3.85714z" fill="url(#color-1)" stroke-width="0"/><path d="M313,180c0,-3.86599 3.134,-7 7,-7c3.86599,0 7,3.134 7,7c0,3.86599 -3.134,7 -7,7c-3.86599,0 -7,-3.134 -7,-7z" fill="url(#color-2)" stroke-width="0.5"/></g></g></svg>