<svg version="1.1" xmlns="http://www.w3.org/2000/svg" xmlns:xlink="http://www.w3.org/1999/xlink" width="9.86974" height="9.83834" viewBox="0,0,9.86974,9.83834"><g transform="translate(-315.07449,-175.09034)"><g data-paper-data="{&quot;isPaintingLayer&quot;:true}" fill="#940000" fill-rule="nonzero" stroke="#ffffff" stroke-width="1.15823" stroke-linecap="butt" stroke-linejoin="miter" stroke-miterlimit="10" stroke-dasharray="" stroke-dashoffset="0" style="mix-blend-mode: normal"><path d="M318.12173,183.11189c0.00239,0.68137 -0.54859,1.2357 -1.2302,1.23767c-0.68171,0.00238 -1.23587,-0.54845 -1.23793,-1.23047c-0.00814,-2.69092 -0.01871,-6.2118 -0.01871,-6.2118c-0.00213,-0.68146 0.54879,-1.23571 1.23038,-1.23784c0,0 4.08011,-0.0126 6.26192,-0.01901c0.68162,-0.00215 1.23561,0.54868 1.23791,1.23045c0.00215,0.68162 -0.54868,1.23578 -1.23038,1.23784c-2.69083,0.00805 -3.27763,0.01334 -3.27763,0.01334c0,0 0.60244,0.5993 1.43881,1.43125c-0.01965,-0.00513 -0.0394,-0.00983 -0.05925,-0.0141c-0.87542,-0.1884 -1.93363,0.45109 -1.95728,1.48989c-0.69524,-0.69157 -1.16717,-1.16106 -1.16717,-1.16106c0,0 0.00324,1.05152 0.00952,3.23384z"/></g></g></svg>