<svg version="1.1" xmlns="http://www.w3.org/2000/svg" xmlns:xlink="http://www.w3.org/1999/xlink" width="73" height="84.91669" viewBox="0,0,73,84.91669"><defs><linearGradient x1="320" y1="205.5" x2="320" y2="274.5" gradientUnits="userSpaceOnUse" id="color-1"><stop offset="0" stop-color="#1a1a1a"/><stop offset="1" stop-color="#ffffff"/></linearGradient><radialGradient cx="320.00001" cy="250.04119" r="9.08929" gradientUnits="userSpaceOnUse" id="color-2"><stop offset="0" stop-color="#ff0000"/><stop offset="1" stop-color="#150000"/></radialGradient><radialGradient cx="300.0478" cy="250.04119" r="9.08929" gradientUnits="userSpaceOnUse" id="color-3"><stop offset="0" stop-color="#ff0000"/><stop offset="1" stop-color="#150000"/></radialGradient><radialGradient cx="320.00001" cy="230.03612" r="9.08929" gradientUnits="userSpaceOnUse" id="color-4"><stop offset="0" stop-color="#ff0000"/><stop offset="1" stop-color="#150000"/></radialGradient><radialGradient cx="339.96826" cy="230.03612" r="9.08929" gradientUnits="userSpaceOnUse" id="color-5"><stop offset="0" stop-color="#ff0000"/><stop offset="1" stop-color="#150000"/></radialGradient></defs><g transform="translate(-283.5,-203.5)"><g stroke-miterlimit="10"><path d="M285.5,274.5v-69h69v69z" fill="url(#color-1)" stroke="#000000" stroke-width="4"/><path d="M283.5,288.41668v-12h73v12z" fill="#000000" stroke="none" stroke-width="0"/><text transform="translate(292.9604,285.95397) scale(0.22533,0.22533)" font-size="40" xml:space="preserve" fill="#ffec15" stroke="none" stroke-width="1" font-family="Pixel" font-weight="normal" text-anchor="start"><tspan x="0" dy="0">NEXT PIECE</tspan></text><path d="M310.91073,250.04119c0,-5.01988 4.06941,-9.08928 9.08929,-9.08928c5.01988,0 9.08929,4.06941 9.08929,9.08928c0,5.01988 -4.06941,9.08928 -9.08929,9.08928c-5.01988,0 -9.08929,-4.06941 -9.08929,-9.08928z" fill="url(#color-2)" stroke="#e20000" stroke-width="1"/><path d="M290.95852,250.04119c0,-5.01988 4.06941,-9.08928 9.08929,-9.08928c5.01988,0 9.08929,4.06941 9.08929,9.08928c0,5.01988 -4.06941,9.08928 -9.08929,9.08928c-5.01988,0 -9.08929,-4.06941 -9.08929,-9.08928z" fill="url(#color-3)" stroke="#e20000" stroke-width="1"/><path d="M310.91073,230.03612c0,-5.01988 4.06941,-9.08928 9.08929,-9.08928c5.01988,0 9.08929,4.06941 9.08929,9.08928c0,5.01988 -4.06941,9.08928 -9.08929,9.08928c-5.01988,0 -9.08929,-4.06941 -9.08929,-9.08928z" fill="url(#color-4)" stroke="#e20000" stroke-width="1"/><path d="M330.87898,230.03612c0,-5.01988 4.06941,-9.08928 9.08929,-9.08928c5.01988,0 9.08929,4.06941 9.08929,9.08928c0,5.01988 -4.06941,9.08928 -9.08929,9.08928c-5.01988,0 -9.08929,-4.06941 -9.08929,-9.08928z" fill="url(#color-5)" stroke="#e20000" stroke-width="1"/></g></g></svg>