<svg version="1.1" xmlns="http://www.w3.org/2000/svg" xmlns:xlink="http://www.w3.org/1999/xlink" width="211.63334" height="18.66667" viewBox="0,0,211.63334,18.66667"><defs><linearGradient x1="264.82924" y1="234.04168" x2="264.82924" y2="245.95834" gradientUnits="userSpaceOnUse" id="color-1"><stop offset="0" stop-color="#073800"/><stop offset="1" stop-color="#22ff00"/></linearGradient><linearGradient x1="281.11494" y1="234.04168" x2="281.11494" y2="245.95834" gradientUnits="userSpaceOnUse" id="color-2"><stop offset="0" stop-color="#073800"/><stop offset="1" stop-color="#22ff00"/></linearGradient><linearGradient x1="297.40065" y1="234.04168" x2="297.40065" y2="245.95834" gradientUnits="userSpaceOnUse" id="color-3"><stop offset="0" stop-color="#073800"/><stop offset="1" stop-color="#22ff00"/></linearGradient><linearGradient x1="313.68636" y1="234.04168" x2="313.68636" y2="245.95834" gradientUnits="userSpaceOnUse" id="color-4"><stop offset="0" stop-color="#073800"/><stop offset="1" stop-color="#22ff00"/></linearGradient><linearGradient x1="329.98636" y1="234.04168" x2="329.98636" y2="245.95834" gradientUnits="userSpaceOnUse" id="color-5"><stop offset="0" stop-color="#073800"/><stop offset="1" stop-color="#22ff00"/></linearGradient><linearGradient x1="346.28636" y1="234.04168" x2="346.28636" y2="245.95834" gradientUnits="userSpaceOnUse" id="color-6"><stop offset="0" stop-color="#073800"/><stop offset="1" stop-color="#22ff00"/></linearGradient><linearGradient x1="362.58636" y1="234.04168" x2="362.58636" y2="245.95834" gradientUnits="userSpaceOnUse" id="color-7"><stop offset="0" stop-color="#073800"/><stop offset="1" stop-color="#22ff00"/></linearGradient><linearGradient x1="378.88636" y1="234.04168" x2="378.88636" y2="245.95834" gradientUnits="userSpaceOnUse" id="color-8"><stop offset="0" stop-color="#073800"/><stop offset="1" stop-color="#22ff00"/></linearGradient><linearGradient x1="395.19469" y1="234.04168" x2="395.19469" y2="245.95834" gradientUnits="userSpaceOnUse" id="color-9"><stop offset="0" stop-color="#073800"/><stop offset="1" stop-color="#22ff00"/></linearGradient></defs><g transform="translate(-214.18333,-230.66666)"><g stroke="none" stroke-miterlimit="10"><path d="M250.55001,249.33334v-18.66667h175.26667v18.66667z" fill="#000000" stroke-width="0"/><path d="M256.65067,245.95834v-11.91667h16.35714v11.91667z" fill="url(#color-1)" stroke-width="0"/><path d="M272.93638,245.95834v-11.91667h16.35714v11.91667z" fill="url(#color-2)" stroke-width="0"/><path d="M289.22209,245.95834v-11.91667h16.35714v11.91667z" fill="url(#color-3)" stroke-width="0"/><path d="M305.5078,245.95834v-11.91667h16.35714v11.91667z" fill="url(#color-4)" stroke-width="0"/><path d="M321.80778,245.95834v-11.91667h16.35714v11.91667z" fill="url(#color-5)" stroke-width="0"/><path d="M338.10779,245.95834v-11.91667h16.35714v11.91667z" fill="url(#color-6)" stroke-width="0"/><path d="M354.40779,245.95834v-11.91667h16.35714v11.91667z" fill="url(#color-7)" stroke-width="0"/><path d="M370.70779,245.95834v-11.91667h16.35714v11.91667z" fill="url(#color-8)" stroke-width="0"/><path d="M387.01612,245.95834v-11.91667h16.35714v11.91667z" fill="url(#color-9)" stroke-width="0"/><path d="M214.18333,249.25v-18.5h41v18.5z" fill="#000000" stroke-width="0"/><text transform="translate(230.79678,242.70396) scale(0.22533,0.22533)" font-size="40" xml:space="preserve" fill="#ffec15" stroke-width="1" font-family="Pixel" font-weight="normal" text-anchor="start"><tspan x="0" dy="0">HP:</tspan></text></g></g></svg>