<svg version="1.1" xmlns="http://www.w3.org/2000/svg" xmlns:xlink="http://www.w3.org/1999/xlink" width="73" height="84.91669" viewBox="0,0,73,84.91669"><defs><linearGradient x1="320" y1="205.5" x2="320" y2="274.5" gradientUnits="userSpaceOnUse" id="color-1"><stop offset="0" stop-color="#1a1a1a"/><stop offset="1" stop-color="#ffffff"/></linearGradient><radialGradient cx="320.00001" cy="261.83065" r="6.61524" gradientUnits="userSpaceOnUse" id="color-2"><stop offset="0" stop-color="#ff00b7"/><stop offset="1" stop-color="#53003b"/></radialGradient><radialGradient cx="320.00001" cy="247.27013" r="6.61524" gradientUnits="userSpaceOnUse" id="color-3"><stop offset="0" stop-color="#ff00b7"/><stop offset="1" stop-color="#53003b"/></radialGradient><radialGradient cx="320.00001" cy="232.71974" r="6.61524" gradientUnits="userSpaceOnUse" id="color-4"><stop offset="0" stop-color="#ff00b7"/><stop offset="1" stop-color="#53003b"/></radialGradient><radialGradient cx="320.00001" cy="218.16936" r="6.61524" gradientUnits="userSpaceOnUse" id="color-5"><stop offset="0" stop-color="#ff00b7"/><stop offset="1" stop-color="#53003b"/></radialGradient></defs><g transform="translate(-283.5,-203.5)"><g stroke-miterlimit="10"><path d="M285.5,274.5v-69h69v69z" fill="url(#color-1)" stroke="#000000" stroke-width="4"/><path d="M283.5,288.41668v-12h73v12z" fill="#000000" stroke="none" stroke-width="0"/><text transform="translate(292.9604,285.95397) scale(0.22533,0.22533)" font-size="40" xml:space="preserve" fill="#ffec15" stroke="none" stroke-width="1" font-family="Pixel" font-weight="normal" text-anchor="start"><tspan x="0" dy="0">NEXT PIECE</tspan></text><path d="M313.38478,261.83065c0,-3.6535 2.96174,-6.61523 6.61524,-6.61523c3.6535,0 6.61524,2.96174 6.61524,6.61523c0,3.6535 -2.96174,6.61524 -6.61524,6.61524c-3.6535,0 -6.61524,-2.96175 -6.61524,-6.61524z" fill="url(#color-2)" stroke="#d50099" stroke-width="1"/><path d="M313.38478,247.27013c0,-3.6535 2.96174,-6.61523 6.61524,-6.61523c3.6535,0 6.61524,2.96174 6.61524,6.61523c0,3.6535 -2.96174,6.61524 -6.61524,6.61524c-3.6535,0 -6.61524,-2.96175 -6.61524,-6.61524z" fill="url(#color-3)" stroke="#d50099" stroke-width="1"/><path d="M313.38478,232.71974c0,-3.6535 2.96174,-6.61523 6.61524,-6.61523c3.6535,0 6.61524,2.96174 6.61524,6.61523c0,3.6535 -2.96174,6.61523 -6.61524,6.61523c-3.6535,0 -6.61524,-2.96174 -6.61524,-6.61523z" fill="url(#color-4)" stroke="#d50099" stroke-width="1"/><path d="M313.38478,218.16936c0,-3.6535 2.96174,-6.61523 6.61524,-6.61523c3.6535,0 6.61524,2.96174 6.61524,6.61523c0,3.6535 -2.96174,6.61524 -6.61524,6.61524c-3.6535,0 -6.61524,-2.96175 -6.61524,-6.61524z" fill="url(#color-5)" stroke="#d50099" stroke-width="1"/></g></g></svg>